<svg xmlns="http://www.w3.org/2000/svg" width="50.824" height="54.454" viewBox="0 0 50.824 54.454"><g transform="translate(0)"><path d="M61.378,38.118H59.957a6.444,6.444,0,0,0-2.872.678,4.628,4.628,0,0,1-4.12,0,6.421,6.421,0,0,0-1.634-.545L53.1,24.5h1.925a.908.908,0,0,0,.908-.908v-3.63a.908.908,0,0,0-.908-.908H51.4V16.336a.907.907,0,0,0-.266-.642l-4.272-4.272V8.6l1.376-1.1,2.35,4.7,1.625-.811L49.683,6.344l1.123-.9h3.313a.908.908,0,0,0,.908-.908V.908A.908.908,0,0,0,54.118,0H45.042a8.178,8.178,0,0,0-8.168,8.168.908.908,0,0,0,.908.908H39.6v2.347L37.14,13.879a.907.907,0,0,0-.266.642v4.538H35.059V11.8a.9.9,0,0,0-.066-.328.937.937,0,0,0-.056-.1,1.011,1.011,0,0,0-.076-.137L31.429,6.943V.908A.908.908,0,0,0,30.521,0H25.076a.908.908,0,0,0-.908.908V6.943l-3.432,4.288a1.011,1.011,0,0,0-.076.137.937.937,0,0,0-.056.1.9.9,0,0,0-.066.328v7.261h-3.63a.908.908,0,0,0-.908.908V23.6a.908.908,0,0,0,.908.908h1.925L22.36,51.848a.908.908,0,0,0,.9.791H44.625a5.43,5.43,0,0,0,4.048,1.815h1.421a6.444,6.444,0,0,0,2.872-.678,4.628,4.628,0,0,1,4.12,0,6.444,6.444,0,0,0,2.872.678h1.421a5.451,5.451,0,0,0,5.445-5.445V43.563A5.451,5.451,0,0,0,61.378,38.118ZM51.4,1.815H53.21V3.63H51.4Zm2.723,19.059v1.815H41.412V20.874ZM38.754,7.261a6.363,6.363,0,0,1,6.289-5.445H49.58V4.1L45.631,7.261Zm6.289,1.815v1.815h-3.63V9.076ZM38.689,14.9l2.191-2.191h4.694l4.006,4.006v2.347H38.689Zm-.908,5.977H39.6v6.353a.908.908,0,0,0,.5.817l5.445,2.723a1.1,1.1,0,0,1,.558.645,1.167,1.167,0,0,1-.091.908,1.06,1.06,0,0,1-1.422.476h0L40.9,30.952a.908.908,0,0,0-1.306.813v9.076a1.815,1.815,0,0,1-1.815,1.815V34.488H35.967v8.168H34.151V34.488H32.336v8.168H30.521V34.488H28.706v8.168a1.815,1.815,0,0,1-1.815-1.815V20.874ZM25.983,1.815h3.63V6.353h-3.63Zm-.472,6.353h4.574l2.178,2.723h-8.93Zm-3.158,4.538H33.244v6.353H22.353Zm-4.538,9.983V20.874h7.261v1.815ZM43.227,43.563v5.445a5.425,5.425,0,0,0,.318,1.815H24.058l-3.4-26.32h4.414V40.841a3.63,3.63,0,0,0,3.63,3.63h9.076a3.63,3.63,0,0,0,3.63-3.63V33.233l2.371,1.185a2.892,2.892,0,0,0,3.874-1.314l.009-.018a2.938,2.938,0,0,0,.166-2.246,2.9,2.9,0,0,0-1.47-1.7l-4.949-2.474V24.5h9.859L49.514,38.118h-.841A5.451,5.451,0,0,0,43.227,43.563Zm21.782,5.445a3.63,3.63,0,0,1-3.63,3.63H59.957a4.629,4.629,0,0,1-2.059-.486,6.455,6.455,0,0,0-5.745,0,4.628,4.628,0,0,1-2.059.486H48.672a3.63,3.63,0,0,1-3.63-3.63v-1.4a5.417,5.417,0,0,0,3.63,1.4h1.421a6.444,6.444,0,0,0,2.872-.678,4.628,4.628,0,0,1,4.12,0,6.444,6.444,0,0,0,2.872.678h1.421a5.417,5.417,0,0,0,3.63-1.4Zm-3.63-1.815H59.957a4.629,4.629,0,0,1-2.059-.486,6.455,6.455,0,0,0-5.745,0,4.628,4.628,0,0,1-2.059.486H48.672a3.63,3.63,0,1,1,0-7.261h1.421a4.629,4.629,0,0,1,2.059.486,6.459,6.459,0,0,0,5.745,0,4.629,4.629,0,0,1,2.059-.486h1.421a3.63,3.63,0,1,1,0,7.261Z" transform="translate(-16 0)"/></g><g transform="translate(44.413 41.753)"><g transform="translate(0 0)"><rect width="1.814" height="1.814"/></g></g><g transform="translate(35.341 41.753)"><g transform="translate(0 0)"><rect width="1.814" height="1.814"/></g></g><g transform="translate(31.712 42.661)"><g transform="translate(0 0)"><rect width="1.814" height="1.814" transform="translate(0)"/></g></g><g transform="translate(40.784 42.661)"><g transform="translate(0 0)"><rect width="1.814" height="1.814" transform="translate(0)"/></g></g></svg>