<svg xmlns="http://www.w3.org/2000/svg" width="38.379" height="54.431" viewBox="0 0 38.379 54.431"><path d="M45.213,19.9V17.3a5.855,5.855,0,0,0,5.263-5.818V.743A.744.744,0,0,0,49.732,0H46.251a.744.744,0,0,0-.744.744V5.712a10.955,10.955,0,0,0-7.362,5.072,10.954,10.954,0,0,0-7.362-5.072V.743A.744.744,0,0,0,30.038,0H26.557a.744.744,0,0,0-.744.744V11.477a5.852,5.852,0,0,0,5.1,5.795V19.9c-8.272,8.637-12.041,23.563-12.041,33.79a.744.744,0,0,0,.744.744H56.51a.744.744,0,0,0,.744-.744C57.254,43.461,53.486,28.535,45.213,19.9ZM32.4,17.324H43.725v2.126H32.4ZM47,5.539V1.488h1.992v4.04H47.5C47.335,5.525,47.165,5.528,47,5.539ZM27.3,1.488h1.993V5.54q-.258-.013-.5-.013H27.3Zm0,9.99V7.013h1.488c.2,0,.389.01.582.022s.375.03.576.055h0a9.465,9.465,0,0,1,7.512,5.6.744.744,0,0,0,1.364,0,9.462,9.462,0,0,1,7.511-5.6h0c.2-.025.392-.043.576-.055s.387-.022.581-.022h1.488v4.465a4.363,4.363,0,0,1-4.359,4.359H31.658A4.364,4.364,0,0,1,27.3,11.477ZM20.37,52.944c.187-10.195,4.165-24.221,11.607-32H44.152c7.442,7.782,11.421,21.808,11.607,32Z" transform="translate(-18.875 0)"/><path d="M73.161,55.92a.744.744,0,0,0-.085,1.049,32.842,32.842,0,0,1,4.382,6.892.745.745,0,1,0,1.339-.651,34.351,34.351,0,0,0-4.588-7.2.745.745,0,0,0-1.049-.086Z" transform="translate(-49.925 -32.038)"/></svg>