<svg xmlns="http://www.w3.org/2000/svg" width="54.448" height="54.454" viewBox="0 0 54.448 54.454"><g transform="translate(0 0)"><path d="M52.035,15.965v0A27.224,27.224,0,0,0,.029,27.229v8.525A6.31,6.31,0,0,0,1.89,40.245l3.668,3.669.5,1.374a10.3,10.3,0,0,0,9.826,6.664c.191,0,.384-.024.576-.033l.045.125a3.651,3.651,0,0,0,4.675,2.191h0l.149-.054a3.648,3.648,0,0,0,2.194-4.669h0L16.334,29.639a3.663,3.663,0,0,0-4.677-2.191l-.147.054A3.63,3.63,0,0,0,9.133,31.4a10.849,10.849,0,0,0-3.561,4.438.908.908,0,0,1-.1-.393V27.229a21.779,21.779,0,0,1,43.558,0v8.212a.852.852,0,0,1-.038.19,10.881,10.881,0,0,0-3.473-4.237A3.63,3.63,0,0,0,43.146,27.5l-.151-.054a3.658,3.658,0,0,0-4.672,2.191L31.135,49.511a3.648,3.648,0,0,0,2.192,4.67l.149.054a3.654,3.654,0,0,0,4.675-2.192l.045-.125c.191.009.386.033.576.033A10.3,10.3,0,0,0,48.6,45.288l.582-1.608,3.435-3.436a6.31,6.31,0,0,0,1.861-4.49V27.229A27.006,27.006,0,0,0,52.035,15.965ZM11.088,30.153a1.814,1.814,0,0,1,1.039-.946l.147-.054a1.838,1.838,0,0,1,2.353,1.1l7.188,19.873a1.83,1.83,0,0,1-1.1,2.343h0l-.149.054a1.839,1.839,0,0,1-2.352-1.1l-.272-.76L11.024,31.548A1.815,1.815,0,0,1,11.088,30.153ZM9.7,33.242v0l6.115,16.9a8.551,8.551,0,0,1-7.763-4.759H8.2c.091,0,.172-.017.259-.025s.149-.008.223-.021a2.821,2.821,0,0,0,.351-.091c.065-.02.131-.033.194-.057a2.781,2.781,0,0,0,.353-.176c.054-.03.11-.052.162-.085a2.825,2.825,0,0,0,.461-4.377L6.947,37.292A8.928,8.928,0,0,1,9.7,33.242ZM3.659,27.229v8.212a2.7,2.7,0,0,0,.8,1.925l4.459,4.46a1.018,1.018,0,0,1-1.439,1.439l-4.3-4.3a4.5,4.5,0,0,1-1.329-3.207V27.229a25.188,25.188,0,0,1,2.044-9.982H5.871A23.653,23.653,0,0,0,3.659,27.229ZM27.252,3.635a23.607,23.607,0,0,0-20.435,11.8H4.747a25.409,25.409,0,0,1,45.01,0h-2.07A23.606,23.606,0,0,0,27.252,3.635ZM37.7,47.945l-.985,2.722-.272.76a1.838,1.838,0,0,1-2.353,1.1h0l-.149-.054a1.832,1.832,0,0,1-1.1-2.344l7.189-19.873a1.835,1.835,0,0,1,2.349-1.1h0l.151.054a1.83,1.83,0,0,1,1.1,2.341v0Zm1.137,2.192,4.01-11.088,2.1-5.808a8.959,8.959,0,0,1,2.722,3.938l-3.363,3.364a2.817,2.817,0,0,0,.48,4.387c.057.036.117.061.176.091a2.82,2.82,0,0,0,.363.171c.071.026.142.044.215.064a2.846,2.846,0,0,0,.356.081c.077.011.153.016.23.022s.123.018.181.018.11-.013.165-.016.091.005.132,0A8.549,8.549,0,0,1,38.841,50.137ZM52.661,35.754a4.508,4.508,0,0,1-1.329,3.208l-3.576,3.577-.726.726a1.018,1.018,0,0,1-1.439-1.439l4.459-4.46a2.706,2.706,0,0,0,.8-1.924V27.229a23.651,23.651,0,0,0-2.212-9.982h1.984a25.188,25.188,0,0,1,2.044,9.982v8.525Z" transform="translate(-0.029 0)"/></g></svg>