<svg xmlns="http://www.w3.org/2000/svg" width="58.389" height="54.431" viewBox="0 0 58.389 54.431"><path d="M82.59,243.8c-1.122-2.1-.86-4.822.738-7.652a20.406,20.406,0,0,1,8.22-7.6c5.065-2.7,10.75-3.386,14.485-1.742l.784-1.781c-4.326-1.9-10.528-1.211-16.185,1.807a22.362,22.362,0,0,0-9,8.363c-1.937,3.429-2.207,6.812-.761,9.524Z" transform="translate(-72.17 -199.638)"/><circle cx="0.973" cy="0.973" r="0.973" transform="translate(33.09 20.434)"/><circle cx="0.973" cy="0.973" r="0.973" transform="translate(52.55 3.892)"/><circle cx="0.973" cy="0.973" r="0.973" transform="translate(36.982 22.38)"/><path d="M69.23,24a5.068,5.068,0,0,0-3.607,1.494l-2.978,2.978a10.918,10.918,0,0,0-2.624,4.246l-.469,1.408A8.962,8.962,0,0,1,57.4,37.612,8.867,8.867,0,0,1,52.557,40.1l-2.529.422a19.291,19.291,0,0,0-3.4-.683,29.136,29.136,0,0,0-16.27,3.41,29.131,29.131,0,0,0-12.2,11.3c-2.571,4.641-2.917,9.268-.974,13.031a11.02,11.02,0,0,0,1.832,2.564l1.665,1.9A18.728,18.728,0,0,0,37.1,78.286l1.752-.219A25.656,25.656,0,0,0,57.946,65.337a18.735,18.735,0,0,0,.816-16.991V47.141a7.913,7.913,0,0,1,4.974-7.347l1.479-.591a9.805,9.805,0,0,0,3.31-2.182l4.312-4.312A5.1,5.1,0,0,0,69.23,24ZM19.861,55.49A27.175,27.175,0,0,1,31.248,44.98a28.387,28.387,0,0,1,12.829-3.332,21.024,21.024,0,0,1,2.333.127c4.127.461,7.314,2.136,9.109,4.757.043.062.083.125.125.187.16.246.308.5.444.761,1.635,3.165,1.3,7.141-.947,11.194a27.174,27.174,0,0,1-11.387,10.51,27.171,27.171,0,0,1-15.161,3.2c-4.605-.514-8.042-2.54-9.677-5.706s-1.3-7.141.947-11.194Zm36.4,8.882A23.711,23.711,0,0,1,38.611,76.136l-1.752.219a16.774,16.774,0,0,1-11.1-2.5,19.85,19.85,0,0,0,2.62.468,22.919,22.919,0,0,0,2.541.139,30.355,30.355,0,0,0,13.73-3.548,29.131,29.131,0,0,0,12.2-11.3,18.812,18.812,0,0,0,1.624-3.84,16.77,16.77,0,0,1-2.209,8.593Zm15.2-33.04-4.312,4.312A7.871,7.871,0,0,1,64.492,37.4l-1.478.591A9.865,9.865,0,0,0,57,45.249a11.768,11.768,0,0,0-3.677-3.31,10.8,10.8,0,0,0,5.452-2.95A10.918,10.918,0,0,0,61.4,34.742l.469-1.408a8.962,8.962,0,0,1,2.154-3.486L67,26.87a3.155,3.155,0,1,1,4.462,4.462Z" transform="translate(-15.942 -24)"/></svg>