<svg xmlns="http://www.w3.org/2000/svg" width="54.457" height="54.454" viewBox="0 0 54.457 54.454"><g transform="translate(0 0)"><g transform="translate(0 0)"><path d="M53.39,34.9H50.8l1.062-6.909a1.062,1.062,0,0,0-.018-.406c.029-.041.058-.083.087-.124a15.869,15.869,0,0,0,2.519-7.181,1.064,1.064,0,0,0-1.56-1.006,18.944,18.944,0,0,0-4.188,3.208,17.582,17.582,0,0,0-2.06-6.551,1.064,1.064,0,0,0-.915-.522h0a1.063,1.063,0,0,0-.915.523,17.58,17.58,0,0,0-2.045,6.487,18.3,18.3,0,0,0-4.208-3.154,1.064,1.064,0,0,0-1.545,1.014,15.869,15.869,0,0,0,2.519,7.181c.028.042.058.083.087.124a1.062,1.062,0,0,0-.018.406L40.667,34.9H37.012V18.532a1.064,1.064,0,0,0-1.064-1.064h-4.5a1.064,1.064,0,1,0,0,2.127h3.437V34.9H19.57V19.6h2.945a1.064,1.064,0,1,0,0-2.127H19.57V1.077A1.064,1.064,0,0,0,18.507.013H1.064A1.064,1.064,0,0,0,0,1.077V53.4a1.064,1.064,0,0,0,1.064,1.064H53.391A1.064,1.064,0,0,0,54.454,53.4V35.96A1.064,1.064,0,0,0,53.39,34.9ZM12.765,52.287a.053.053,0,0,1-.053.053H2.183a.053.053,0,0,1-.053-.053V49.161a.053.053,0,0,1,.053-.053h10.53a.053.053,0,0,1,.053.053ZM2.13,46.928V44.876a.053.053,0,0,1,.053-.053H9.328a.053.053,0,0,1,.053.053v2.053a.053.053,0,0,1-.053.053H2.183A.053.053,0,0,1,2.13,46.928ZM17.442,52.34H14.89c0-.018,0-.035,0-.053V49.161a2.182,2.182,0,0,0-2.18-2.18H11.505c0-.018,0-.035,0-.053V44.876a2.183,2.183,0,0,0-2.18-2.18H2.183l-.056,0V37.024H17.442ZM5.531,28.3H5.318V25.326h8.934V28.3H5.531Zm7.445,2.127V34.9H6.594V30.431ZM17.442,34.9H15.1V30.431h.213a1.064,1.064,0,0,0,1.064-1.064V24.262A1.064,1.064,0,0,0,15.316,23.2H4.255a1.064,1.064,0,0,0-1.064,1.064v5.105a1.064,1.064,0,0,0,1.064,1.064h.213V34.9H2.127V19.61H17.442V34.9ZM12.221,12.049a4.473,4.473,0,0,1,1.125,2.968v2.452H6.224V15.017a4.473,4.473,0,0,1,1.125-2.968A6.6,6.6,0,0,0,9.009,7.67v-1.6h1.552v1.6A6.6,6.6,0,0,0,12.221,12.049Zm5.222,5.42H15.474V15.016a6.6,6.6,0,0,0-1.66-4.378A4.472,4.472,0,0,1,12.688,7.67V5.012a1.064,1.064,0,0,0-1.064-1.064H7.946A1.064,1.064,0,0,0,6.882,5.012V7.67a4.473,4.473,0,0,1-1.125,2.968A6.6,6.6,0,0,0,4.1,15.017v2.452H2.127V2.14H17.443Zm7.825,34.819a.053.053,0,0,1-.053.053H23.162a.053.053,0,0,1-.053-.053V45.142a.053.053,0,0,1,.053-.053h2.053a.053.053,0,0,1,.053.053Zm4.258,0a.053.053,0,0,1-.053.053H27.448a.053.053,0,0,1-.053-.053V41.757a.053.053,0,0,1,.053-.053h2.026a.053.053,0,0,1,.053.053Zm-.053-12.71H27.448a2.183,2.183,0,0,0-2.18,2.18v1.207l-.053,0H23.162a2.183,2.183,0,0,0-2.18,2.18v7.145c0,.018,0,.035,0,.053H19.57V37.024H34.884V39.58l-.052,0H31.706a2.164,2.164,0,0,0-1.116.311A2.164,2.164,0,0,0,29.473,39.577Zm5.41,12.716a.052.052,0,0,1-.052.047H31.706a.053.053,0,0,1-.053-.053V41.757a.053.053,0,0,1,.053-.053h3.126a.052.052,0,0,1,.052.047V52.293ZM48.663,25.858a1.066,1.066,0,0,0,.12-.145,14.6,14.6,0,0,1,3.1-3.211,12.967,12.967,0,0,1-1.7,3.76q-.171.252-.361.5H48.521Q48.605,26.308,48.663,25.858Zm-2.929-6.806a14.609,14.609,0,0,1,.924,4.923,13.4,13.4,0,0,1-.3,2.787H45.12a13.387,13.387,0,0,1-.307-2.785A14.643,14.643,0,0,1,45.734,19.053ZM44.9,28.89h4.673L48.652,34.9H42.819L41.9,28.89H44.9Zm-5.325-6.438a14.089,14.089,0,0,1,3.128,3.2,1.066,1.066,0,0,0,.094.117q.06.493.153.991h-1.3q-.19-.248-.361-.5A13.007,13.007,0,0,1,39.578,22.452ZM52.327,52.34H42.758V45.214a1.064,1.064,0,0,0-2.127,0V52.34H37.012V37.024H52.327V52.34Z" transform="translate(0 -0.013)"/></g></g><g transform="translate(26.166 17.455)"><path d="M247.829,164.436a1.063,1.063,0,1,0,.312.752A1.072,1.072,0,0,0,247.829,164.436Z" transform="translate(-246.013 -164.124)"/></g><g transform="translate(40.631 39.803)"><path d="M383.822,374.554a1.063,1.063,0,1,0,.312.752A1.072,1.072,0,0,0,383.822,374.554Z" transform="translate(-382.006 -374.242)"/></g></svg>