<svg xmlns="http://www.w3.org/2000/svg" width="54.454" height="54.454" viewBox="0 0 54.454 54.454"><path d="M161.878.8a.8.8,0,0,0-.8-.8H147.114a1.874,1.874,0,0,0-1.872,1.872V4.021a1.874,1.874,0,0,0,1.872,1.872h.277V25.57H122.726a2.517,2.517,0,0,0-.476,4.988v2.471a13.706,13.706,0,0,0,13.69,13.69h6.615v6.938a.8.8,0,0,0,.8.8h12.14a.8.8,0,0,0,.8-.8V45.946a.8.8,0,0,0-1.6,0v6.913H144.151V45.921a.8.8,0,0,0-.8-.8H135.94a12.108,12.108,0,0,1-12.095-12.095V30.6H154.7v11.62a.8.8,0,0,0,1.6,0V30.6h2.641a2.949,2.949,0,0,0,2.946-2.946V23.064a.8.8,0,1,0-1.6,0v4.592a1.352,1.352,0,0,1-1.351,1.351h-9.946V5.893h11.3V19.342a.8.8,0,1,0,1.6,0ZM121.8,28.087a.922.922,0,0,1,.921-.921H147.39v1.843H122.726A.922.922,0,0,1,121.8,28.087ZM146.837,4.021V1.872a.277.277,0,0,1,.277-.277h13.169V4.3H147.114A.277.277,0,0,1,146.837,4.021Z" transform="translate(-107.424)"/><path d="M26.558,71.1a5.955,5.955,0,1,0,0-5.033H24.488a.8.8,0,1,0,0,1.6h7.466a.921.921,0,0,1,0,1.842h-26a.921.921,0,1,1,0-1.842H20.766a.8.8,0,0,0,0-1.6H11.352a5.955,5.955,0,1,0,0,5.033Zm7.177-.738a2.516,2.516,0,0,0-1.78-4.295h-3.56a4.36,4.36,0,1,1,0,5.033h3.56A2.5,2.5,0,0,0,33.734,70.363ZM5.955,72.944a4.36,4.36,0,1,1,3.56-6.876H5.955a2.516,2.516,0,1,0,0,5.033h3.56A4.369,4.369,0,0,1,5.955,72.944Z" transform="translate(0 -55.969)"/><path d="M416.187,75.678a2.946,2.946,0,1,0,2.946-2.946A2.95,2.95,0,0,0,416.187,75.678Zm4.3,0a1.351,1.351,0,1,1-1.351-1.351A1.353,1.353,0,0,1,420.484,75.678Z" transform="translate(-371.923 -64.997)"/></svg>