<svg xmlns="http://www.w3.org/2000/svg" width="58.696" height="54.454" viewBox="0 0 58.696 54.454"><path d="M58.7,23.293a4.792,4.792,0,1,0-5.939,4.65v5.441a5.306,5.306,0,0,1-2.88,4.714,6.81,6.81,0,0,0-6.629-5.288H33.135a1.146,1.146,0,1,0,0,2.293h5.029a6.77,6.77,0,0,0-1.713,4.506V56.981a6.068,6.068,0,0,1-4.356-.258h0a8.346,8.346,0,0,0-6.933,0h0a6.061,6.061,0,0,1-5.025,0h0a8.354,8.354,0,0,0-6.934,0h0a5.889,5.889,0,0,1-1.363.435V39.609a4.51,4.51,0,0,1,4.5-4.506h6.506a1.146,1.146,0,1,0,0-2.293H16.332a6.808,6.808,0,0,0-6.694,5.624,5.34,5.34,0,0,1-3.7-5.05V27.943a4.792,4.792,0,1,0-2.293,0v5.441a7.649,7.649,0,0,0,5.888,7.4V71.808a1.146,1.146,0,0,0,1.146,1.146H37.6a1.146,1.146,0,0,0,1.146-1.146V68.242H48.9A1.146,1.146,0,0,0,50.049,67.1V40.523a7.608,7.608,0,0,0,5-7.138V27.943A4.8,4.8,0,0,0,58.7,23.293Zm-56.4,0a2.5,2.5,0,1,1,2.5,2.5A2.5,2.5,0,0,1,2.293,23.293ZM36.451,70.661H11.827V66.285a8.212,8.212,0,0,0,2.314-.674l0,0a6.061,6.061,0,0,1,5.03,0h0a8.321,8.321,0,0,0,6.934,0h0a6.053,6.053,0,0,1,5.026,0h0a8.328,8.328,0,0,0,5.309.549v4.5Zm0-6.877a6.028,6.028,0,0,1-4.356-.259h0a8.346,8.346,0,0,0-6.933,0h0a6.028,6.028,0,0,1-5.025,0h0a8.354,8.354,0,0,0-6.934,0h0a5.937,5.937,0,0,1-1.363.437V59.48a8.174,8.174,0,0,0,2.314-.671l0,0a6.061,6.061,0,0,1,5.03,0h0a8.353,8.353,0,0,0,6.934,0h0a6.054,6.054,0,0,1,5.026,0h0a8.237,8.237,0,0,0,3.466.752,8.348,8.348,0,0,0,1.843-.2v4.428Zm6.8-28.681a4.515,4.515,0,0,1,4.411,3.578c-.068,0-.135.005-.2.005H38.839A4.512,4.512,0,0,1,43.248,35.1Zm4.508,30.846H38.743V40.979h8.713c.1,0,.2,0,.3-.008ZM53.9,25.79a2.5,2.5,0,1,1,2.5-2.5A2.5,2.5,0,0,1,53.9,25.79Z" transform="translate(0 -18.5)"/><path d="M235.243,145.621a1.146,1.146,0,0,0,0-2.293h0a1.146,1.146,0,0,0,0,2.293Z" transform="translate(-207.258 -129.018)"/></svg>