<svg xmlns="http://www.w3.org/2000/svg" width="56.27" height="54.454" viewBox="0 0 56.27 54.454"><path d="M119.171,161.986c4,0,7.261-2.646,7.261-5.9a.908.908,0,0,0-1.815,0c0,2.02-1.966,3.7-4.538,4.026v-2.88a2.051,2.051,0,0,0,.275-.166l1.54-1.1h0a2.2,2.2,0,0,0,.907-1.792,2.135,2.135,0,0,0-2.09-2.173H117.63a2.135,2.135,0,0,0-2.09,2.173,2.2,2.2,0,0,0,.907,1.792l1.54,1.1a2.04,2.04,0,0,0,.276.166v2.88c-2.572-.325-4.538-2.006-4.538-4.026a.908.908,0,1,0-1.815,0C111.91,159.34,115.167,161.986,119.171,161.986Zm-1.669-7.5a.387.387,0,0,1-.146-.314.329.329,0,0,1,.275-.358h3.081a.329.329,0,0,1,.275.358.387.387,0,0,1-.146.314l-1.54,1.1a.211.211,0,0,1-.257,0Z" transform="translate(-100.122 -136.574)"/><circle cx="0.908" cy="0.908" r="0.908" transform="translate(23.587 13.613)"/><circle cx="0.908" cy="0.908" r="0.908" transform="translate(12.696 13.613)"/><path d="M355.63,255.261a3.63,3.63,0,1,0-3.63-3.63A3.63,3.63,0,0,0,355.63,255.261Zm0-5.445a1.815,1.815,0,1,1-1.815,1.815A1.815,1.815,0,0,1,355.63,249.815Z" transform="translate(-312.974 -221.681)"/><path d="M63.363,51.4H57.918V39.6a.9.9,0,0,0-.164-.52h0L51.4,30.006a.908.908,0,0,0-1.487,0L43.56,39.081h0a.9.9,0,0,0-.164.52v5.68a14.333,14.333,0,0,0-4.948-4.127,13.479,13.479,0,0,0,3.123-8.814,14.338,14.338,0,0,0-.666-4.364,6.353,6.353,0,1,0-8.636-8.484,18.18,18.18,0,0,0-10.44,0,6.353,6.353,0,1,0-8.636,8.484,14.338,14.338,0,0,0-.666,4.364,13.48,13.48,0,0,0,3.123,8.814,13.584,13.584,0,0,0-7.558,11.02c0,.011,0,.023,0,.034L8,53.455a.872.872,0,0,0,0,.123,5.457,5.457,0,0,0,3.624,4.773,8.923,8.923,0,0,0-.9,3.941c0,4.5,3.257,8.168,7.261,8.168a6.926,6.926,0,0,0,5.424-2.747,7.621,7.621,0,0,0,7.3,0,6.926,6.926,0,0,0,5.424,2.747,7.241,7.241,0,0,0,6.5-4.538H63.363a.908.908,0,0,0,.908-.908V52.308A.908.908,0,0,0,63.363,51.4ZM50.657,32.108l4.61,6.586h-9.22Zm-5.445,8.4H56.1V51.4H45.9a14.775,14.775,0,0,0-.69-2.723ZM42.49,58.344a5.48,5.48,0,0,0,2.227-1.5h1.4v3.63H43.213a8.754,8.754,0,0,0-.724-2.132Zm1.71-5.99.082,1.163a3.638,3.638,0,0,1-2.813,3.238,7.016,7.016,0,0,0-4.444-2.568A15.793,15.793,0,0,0,33.582,44.7,13.267,13.267,0,0,0,37.1,42.512a11.931,11.931,0,0,1,7.1,9.841ZM37.941,17.82a4.538,4.538,0,0,1,2.289,8.457,12.669,12.669,0,0,0-2.541-3.567,13.127,13.127,0,0,0-3.714-2.558A4.548,4.548,0,0,1,37.941,17.82Zm-26.32,4.538a4.538,4.538,0,0,1,8.5-2.206,13.124,13.124,0,0,0-3.714,2.558,12.665,12.665,0,0,0-2.541,3.567,4.548,4.548,0,0,1-2.249-3.919ZM17.684,24a13,13,0,0,1,9.366-3.461A13,13,0,0,1,36.416,24a11.545,11.545,0,0,1,3.34,8.337,11.545,11.545,0,0,1-3.34,8.337A13,13,0,0,1,27.05,44.14a13,13,0,0,1-9.366-3.461,11.545,11.545,0,0,1-3.34-8.337A11.545,11.545,0,0,1,17.684,24ZM9.818,53.517,9.9,52.353A11.932,11.932,0,0,1,17,42.512a13.269,13.269,0,0,0,3.539,2.2A15.858,15.858,0,0,0,17.1,54.186a7.018,7.018,0,0,0-4.447,2.572,3.637,3.637,0,0,1-2.831-3.242Zm8.166,15.127c-3,0-5.445-2.85-5.445-6.353s2.443-6.353,5.445-6.353,5.445,2.85,5.445,6.353S20.987,68.644,17.984,68.644Zm9.076-1.815a5.865,5.865,0,0,1-2.686-.661,8.932,8.932,0,0,0,.871-3.876c0-4.15-2.766-7.584-6.332-8.1A13.579,13.579,0,0,1,22.4,45.357a18.387,18.387,0,0,0,9.313,0,13.517,13.517,0,0,1,3.493,8.839c-3.566.514-6.332,3.949-6.332,8.1a8.932,8.932,0,0,0,.871,3.876A5.865,5.865,0,0,1,27.06,66.829Zm9.076,1.815c-3,0-5.445-2.85-5.445-6.353s2.443-6.353,5.445-6.353,5.445,2.85,5.445,6.353S39.138,68.644,36.136,68.644ZM43.4,62.291h3.63a.908.908,0,0,0,.908-.908V55.938a.908.908,0,0,0-.908-.908H45.8a5.4,5.4,0,0,0,.3-1.453.909.909,0,0,0,0-.123l-.017-.239h3.669V64.106H43.213a9.128,9.128,0,0,0,.183-1.815Zm19.059,1.815H51.565V53.215H62.456Z" transform="translate(-8.001 -16.005)"/><path d="M408.908,367.261h5.445a.908.908,0,0,0,.812-1.313l-2.723-5.445a.908.908,0,0,0-1.623,0l-2.723,5.445a.908.908,0,0,0,.812,1.313Zm2.723-4.324,1.254,2.508h-2.509Z" transform="translate(-362.621 -320.975)"/></svg>